<svg xmlns="http://www.w3.org/2000/svg" width="12" height="12" viewBox="0 0 12 12"><defs><style>.a{fill:none;}.b{fill:#fff;}</style></defs><g transform="translate(-1429 -210)"><rect class="a" width="12" height="12" transform="translate(1429 210)"/><path class="b" d="M640.141,344.23c.009-.008.023-.018.035-.03q2.581-2.581,5.161-5.162a.635.635,0,0,0-.008-.961c-.248-.251-.5-.5-.749-.749a.655.655,0,0,0-1.053,0l-5.052,5.052c-.033.033-.064.068-.09.094Zm-2.415-.983a.145.145,0,0,0-.016.034c-.149.556-.3,1.111-.446,1.669a.386.386,0,0,0,.5.5c.238-.059.473-.128.709-.192l.994-.266Z" transform="translate(794.209 -125.262)"/></g></svg>